<svg xmlns="http://www.w3.org/2000/svg" width="18.756" height="18.756" viewBox="0 0 18.756 18.756"><defs><style>.a,.b{fill:#34251f;}.b{fill-rule:evenodd;}</style></defs><g transform="translate(0)"><path class="a" d="M382.186,221.7a9.378,9.378,0,1,1,9.378-9.378A9.389,9.389,0,0,1,382.186,221.7Zm0-17.748a8.37,8.37,0,1,0,8.371,8.371A8.38,8.38,0,0,0,382.186,203.954Z" transform="translate(-372.808 -202.947)"/></g><g transform="translate(6.757 3.757)"><path class="b" d="M393.623,219.546v5.435a.142.142,0,0,0,.142.142h2.018a.142.142,0,0,0,.142-.142v-5.524h1.463a.141.141,0,0,0,.141-.13l.141-1.664a.142.142,0,0,0-.141-.154h-1.6V216.33a.5.5,0,0,1,.5-.5h1.128a.142.142,0,0,0,.142-.142v-1.664a.142.142,0,0,0-.142-.142h-1.906a2.025,2.025,0,0,0-2.025,2.025v1.6h-1.009a.142.142,0,0,0-.142.142v1.664a.141.141,0,0,0,.142.142h1.009Z" transform="translate(-392.472 -213.881)"/></g></svg>