<svg xmlns="http://www.w3.org/2000/svg" width="18.756" height="18.756" viewBox="0 0 18.756 18.756"><defs><style>.a{fill:#34251f;}</style></defs><path class="a" d="M464.091,157.474a9.378,9.378,0,1,1,9.378-9.378A9.389,9.389,0,0,1,464.091,157.474Zm0-17.749a8.371,8.371,0,1,0,8.37,8.371A8.38,8.38,0,0,0,464.091,139.725Z" transform="translate(-454.713 -138.718)"/><g transform="translate(3.93 5.548)"><path class="a" d="M477.214,157.271a2.408,2.408,0,0,0-2.408-2.408h-6.246a2.408,2.408,0,0,0-2.408,2.408V160.2a2.408,2.408,0,0,0,2.408,2.408h6.246a2.408,2.408,0,0,0,2.408-2.408Zm-3.941,1.611-2.491,1.366c-.108.059-.206-.02-.206-.143v-2.8c0-.125.1-.2.209-.141l2.508,1.438A.163.163,0,0,1,473.273,158.883Z" transform="translate(-466.151 -154.863)"/></g></svg>