<svg xmlns="http://www.w3.org/2000/svg" width="18.633" height="18.633" viewBox="0 0 18.633 18.633"><defs><style>.a{fill:#34251f;}</style></defs><path class="a" d="M464.208,222.264a9.317,9.317,0,1,1,9.317-9.317A9.327,9.327,0,0,1,464.208,222.264Zm0-17.748a8.432,8.432,0,1,0,8.431,8.432A8.441,8.441,0,0,0,464.208,204.516Zm3.141,4.651a.689.689,0,1,0,.69.69A.69.69,0,0,0,467.349,209.168Zm-3.065.884a2.9,2.9,0,1,0,2.9,2.9A2.9,2.9,0,0,0,464.284,210.052Zm0,4.751a1.855,1.855,0,1,1,1.855-1.855A1.857,1.857,0,0,1,464.284,214.8Zm5.844-4.262a3.533,3.533,0,0,0-3.533-3.532h-4.662a3.532,3.532,0,0,0-3.532,3.532V215.2a3.532,3.532,0,0,0,3.532,3.532H466.6a3.533,3.533,0,0,0,3.533-3.532Zm-1.106,4.662a2.426,2.426,0,0,1-2.426,2.426h-4.662a2.426,2.426,0,0,1-2.426-2.426v-4.662a2.426,2.426,0,0,1,2.426-2.426H466.6a2.426,2.426,0,0,1,2.426,2.426Z" transform="translate(-454.891 -203.631)"/></svg>